<svg width="24" height="24" viewBox="0 0 24 24" fill="none" xmlns="http://www.w3.org/2000/svg">
<path d="M4.95746 15.987L5.06656 15.2449L5.06656 15.2449L4.95746 15.987ZM8.25 16.3556H9C9 15.9638 8.69842 15.6381 8.30779 15.6079L8.25 16.3556ZM8.25 21H7.5C7.5 21.3033 7.68273 21.5768 7.96299 21.6929C8.24324 21.809 8.56583 21.7448 8.78033 21.5303L8.25 21ZM19.0425 15.9871L18.9334 15.2451L18.9334 15.2451L19.0425 15.9871ZM19.0425 3.51293L18.9334 4.25496L19.0425 3.51293ZM4.95747 3.51302L5.06657 4.25505L5.06657 4.25505L4.95747 3.51302ZM12.326 16.924L12.8564 17.4543L12.326 16.924ZM13.3635 16.481L13.3844 17.2307L13.3635 16.481ZM5.06656 15.2449C3.87679 15.07 3 14.0154 3 12.7593H1.5C1.5 14.7054 2.87004 16.4381 4.84836 16.729L5.06656 15.2449ZM8.30779 15.6079C7.2165 15.5235 6.13567 15.4021 5.06656 15.2449L4.84835 16.729C5.95146 16.8912 7.06651 17.0164 8.19221 17.1034L8.30779 15.6079ZM9 21V16.3556H7.5V21H9ZM11.7957 16.3936L7.71967 20.4697L8.78033 21.5303L12.8564 17.4543L11.7957 16.3936ZM18.9334 15.2451C17.1021 15.5143 15.2364 15.6785 13.3426 15.7313L13.3844 17.2307C15.3374 17.1763 17.262 17.0069 19.1516 16.7291L18.9334 15.2451ZM21 12.7595C21 14.0155 20.1232 15.0701 18.9334 15.2451L19.1516 16.7291C21.1299 16.4382 22.5 14.7056 22.5 12.7595H21ZM21 6.74056V12.7595H22.5V6.74056H21ZM18.9334 4.25496C20.1232 4.42988 21 5.48447 21 6.74056H22.5C22.5 4.79445 21.1299 3.06177 19.1516 2.77091L18.9334 4.25496ZM12.0003 3.75C14.356 3.75 16.6709 3.92233 18.9334 4.25496L19.1516 2.77091C16.8171 2.4277 14.4292 2.25 12.0003 2.25V3.75ZM5.06657 4.25505C7.32921 3.92236 9.64439 3.75 12.0003 3.75V2.25C9.57113 2.25 7.18302 2.42773 4.84836 2.771L5.06657 4.25505ZM3 6.74064C3 5.48457 3.87679 4.42999 5.06657 4.25505L4.84836 2.771C2.87004 3.06188 1.5 4.79455 1.5 6.74064H3ZM3 12.7593V6.74064H1.5V12.7593H3ZM12.8564 17.4543C12.993 17.3177 13.1814 17.2364 13.3844 17.2307L13.3426 15.7313C12.7663 15.7474 12.2104 15.979 11.7957 16.3936L12.8564 17.4543Z" fill="#93C5FD"/>
<path d="M20.695 16.658L20.5859 15.916L20.5859 15.916L20.695 16.658ZM18.5 16.9038H17.75C17.75 16.512 18.0516 16.1862 18.4422 16.156L18.5 16.9038ZM18.5 20H19.25C19.25 20.3033 19.0673 20.5768 18.787 20.6929C18.5068 20.809 18.1842 20.7448 17.9697 20.5303L18.5 20ZM11.305 16.6581L11.4141 15.916L11.4141 15.916L11.305 16.6581ZM11.305 8.34196L11.4141 9.08398L11.305 8.34196ZM20.695 8.34202L20.5859 9.08404L20.5859 9.08404L20.695 8.34202ZM15.9259 17.4259L15.3956 17.9562L15.9259 17.4259ZM14.8885 16.9811L14.9141 16.2315L14.9141 16.2315L14.8885 16.9811ZM20.5859 15.916C21.2477 15.8186 21.75 15.2286 21.75 14.5062H23.25C23.25 15.9186 22.2544 17.1867 20.8041 17.4L20.5859 15.916ZM18.4422 16.156C19.164 16.1002 19.8788 16.0199 20.5859 15.916L20.8041 17.4C20.0631 17.509 19.314 17.5931 18.5578 17.6515L18.4422 16.156ZM17.75 20V16.9038H19.25V20H17.75ZM16.4562 16.8956L19.0303 19.4697L17.9697 20.5303L15.3956 17.9562L16.4562 16.8956ZM11.4141 15.916C12.5614 16.0847 13.7293 16.1911 14.9141 16.2315L14.8629 17.7306C13.622 17.6883 12.3984 17.5769 11.1959 17.4001L11.4141 15.916ZM10.25 14.5063C10.25 15.2287 10.7523 15.8187 11.4141 15.916L11.1959 17.4001C9.74559 17.1869 8.75 15.9187 8.75 14.5063H10.25ZM10.25 10.4937V14.5063H8.75V10.4937H10.25ZM11.4141 9.08398C10.7523 9.18127 10.25 9.77132 10.25 10.4937H8.75C8.75 9.08129 9.74559 7.81316 11.1959 7.59993L11.4141 9.08398ZM15.9998 8.75C14.4416 8.75 12.9104 8.86399 11.4141 9.08398L11.1959 7.59993C12.7642 7.36936 14.3683 7.25 15.9998 7.25V8.75ZM20.5859 9.08404C19.0895 8.86401 17.5582 8.75 15.9998 8.75V7.25C17.6315 7.25 19.2357 7.36938 20.8041 7.59999L20.5859 9.08404ZM21.75 10.4938C21.75 9.77138 21.2477 9.18134 20.5859 9.08404L20.8041 7.59999C22.2544 7.81324 23.25 9.08136 23.25 10.4938H21.75ZM21.75 14.5062V10.4938H23.25V14.5062H21.75ZM15.3956 17.9562C15.2595 17.8202 15.07 17.7377 14.8629 17.7306L14.9141 16.2315C15.4861 16.251 16.041 16.4803 16.4562 16.8956L15.3956 17.9562Z" fill="#3B82F6"/>
</svg>
